<?xml version="1.0" encoding="utf-8" ?><svg xmlns="http://www.w3.org/2000/svg" xmlns:xlink="http://www.w3.org/1999/xlink" width="1024" height="1024" viewBox="0 0 1024 1024"><clipPath id="cl_3"><rect x="0.00067138672" y="-0.00030517578" width="1023.9999" height="1024"/></clipPath><g clip-path="url(#cl_3)"><path fill="#007380" transform="matrix(1.01688 0 0 1.03959 -884.687 -263.018)" d="M1443.2 390.886L1558.1 390.66C1566.39 417.168 1580.12 450.802 1589.97 477.12L1644.39 624.44L1831.02 1135.97C1802.37 1159.36 1760.13 1175.76 1724.2 1182.8C1637.75 1199.73 1545.18 1174.79 1466.22 1139.81C1388.66 1105.45 1317.9 1061.72 1230.75 1056.66C1152.36 1051 1047.57 1103.74 1010.47 1174.04L927.882 1173.93L932.86 1163.02C968.725 1085.74 1035.66 1031.37 1114.77 1002.21C1203.53 967.915 1298.36 982.811 1383.54 1020.44C1465.45 1056.61 1542.52 1102.83 1633.76 1112.93C1673.82 1117.37 1704.4 1115.68 1742.77 1101.57L1718.06 1034.37C1504.7 1075.99 1380.32 826.251 1089.44 934.591C1076.48 939.413 1063.72 944.796 1051.22 950.726C1041.83 955.279 1032.38 960.687 1022.87 964.763C1029.5 946.697 1041.42 922.139 1049.64 903.864L1103.26 785.216L1279.52 390.956C1305.38 390.645 1331.82 390.95 1357.73 390.969C1336.55 435.99 1316.15 484.386 1295.75 530.082L1155.95 842.473C1186.71 835.473 1220.14 833.697 1251.58 834.959C1271.76 791.634 1292.15 740.751 1311.49 696.272L1443.2 390.886ZM1646.15 964.943C1665.93 967.716 1672.99 967.101 1692.5 963.994L1510.58 464.094L1490.09 464.115L1443.17 571.888C1455.62 604.73 1470.4 638.305 1483.85 670.914L1601.57 952.799C1615.51 958.104 1631.3 963.097 1646.15 964.943ZM1325.47 844.149C1373.01 855.187 1409.03 868.545 1453.6 887.983L1506.39 912.532C1479.4 842.712 1448.35 773.917 1420.34 704.461C1417.74 698.027 1406.74 669.868 1403.24 665.609C1394.96 682.937 1386.85 702.096 1379.45 719.949C1362.23 761.519 1342.56 802.626 1325.47 844.149Z"/></g></svg>